<svg width="740" height="550" viewBox="0 0 740 550" fill="none" xmlns="http://www.w3.org/2000/svg">
<path d="M0 20C0 8.95431 8.9543 0 20 0H350C361.046 0 370 8.95431 370 20V61C370 61 370 68 375 73.5C380 79 386.5 80 386.5 80H0V20Z" fill="#0B856F"/>
<path d="M370 20C370 8.95429 378.954 0 390 0H720C731.046 0 740 8.95431 740 20V100C740 100 738.903 91.2494 734 86.4322C728.878 81.399 720.5 80.402 720.5 80.402H390C378.954 80.402 370 71.4477 370 60.402V20Z" fill="#D5E7E3"/>
<path d="M0 80H720C731.046 80 740 88.9543 740 100V530C740 541.046 731.046 550 720 550H20C8.95429 550 0 541.046 0 530V80Z" fill="#0B856F"/>
</svg>
